<?xml version="1.0" encoding="UTF-8"?>
<svg id="Layer_2" data-name="Layer 2" xmlns="http://www.w3.org/2000/svg" xmlns:xlink="http://www.w3.org/1999/xlink" viewBox="0 0 252 162">
  <defs>
    <clipPath id="clippath">
      <rect x="13.75" y="11.161" width="224.5" height="139.677" rx="14.164" ry="14.164" fill="none" stroke="#00583d" stroke-width="2"/>
    </clipPath>
    <clipPath id="clippath-1">
      <path d="M222.908,150.839H29.092c-8.473,0-15.342-7.171-15.342-16.018V22.786c0-8.846,6.869-16.018,15.342-16.018h193.817c8.473,0,15.342,7.171,15.342,16.018v112.036c0,8.846-6.869,16.018-15.342,16.018Z" fill="none"/>
    </clipPath>
    <clipPath id="clippath-2">
      <rect x="49.488" y="30.594" width="153.121" height="26.396" fill="none"/>
    </clipPath>
    <clipPath id="clippath-3">
      <rect x="26.93" y="67.529" width="43.86" height="49.054" fill="none" stroke="#00583d"/>
    </clipPath>
  </defs>
  <g id="Layer_1-2" data-name="Layer 1">
    <g>
      <g id="Card_1" data-name="Card 1">
        <rect width="252" height="162" fill="#fff"/>
        <rect x="4.5" y="4.499" width="242.999" height="153" fill="#fff" stroke="#010101" stroke-miterlimit="10"/>
      </g>
      <g>
        <g clip-path="url(#clippath)">
          <g>
            <g opacity=".15">
              <g>
                <path d="M278.857,105.166c.174-1.235.142-2.829.191-4.097.558-14.606-1.944-29.341-11.813-40.591-3.514-4.005-8.034-8.285-12.454-11.264-2.324-1.566-4.82-2.726-7.358-3.883-1.385-.631-3.086-1.191-4.579-.655-2.796,1.003-5.206,6.406-6.74,8.83l-.456,1.145c.077-1.099.241-2.196.317-3.296.295-4.273.618-12.256-1.716-15.969-1.715-2.728-6.936-5.606-9.842-6.993-2.291-1.093-6.06-2.879-8.579-2.372-2.442.491-3.247,2.537-4.574,4.328-1.823,2.458-3.745,5.077-5.796,7.343-1.597,1.765-4.739,4.874-7.235,4.955-.504.016-2.094-.481-2.661-.661-1.911-.607-3.847-1.471-5.764-2.121-7.557-2.561-15.342-4.303-23.195-5.562-3.384-.543-6.765-1.063-10.172-1.468-8.526-1.012-17.279-1.749-25.855-1.461-2.678.09-4.796.184-7.144,1.658-3.738,2.345-4.961,7.999-5.903,12.035-1.979,8.478-2.59,17.598-.256,26.091.154.56.48,2.399,1.326,1.719.507-.407.907-2.978,1.102-3.707.338-1.269.739-2.908,1.364-4.048.053-.096.081-.225.222-.224-.378,1.79,1.042,2.428,2.412,3.034,2.027.897,4.416,1.619,6.53,2.303,1.165.377,3.359,1.334,4.52.918.207-.074.429-.228.611-.355.323.904.894,1.132,1.718,1.477,3.012,1.265,6.316,2.103,9.359,3.316.673.154,1.339.326,2.036.27l.981-.453c-.102.935.843,1.409,1.569,1.737,1.285.58,2.844.939,4.183,1.435,1.711.633,3.471,1.576,5.235,2.014.804.2,1.579.152,2.243-.359.035.757.518,1.212,1.145,1.545,1.667.886,4.023,1.642,5.828,2.34,1.324.512,4.177,1.887,5.51,1.605.317-.067.546-.249.78-.46.173.218.163.502.291.754.242.473,1.017.966,1.487,1.217,2.204,1.177,4.914,1.881,7.144,3.064.383.203.588.381.903.658l-.005.257c.845.593,1.031,1.689.968,2.662-.177-.955-2.543-2.475-3.353-2.411-.099.008-.18.069-.25.134-.729-.335-1.535-.55-2.324-.722-1.829-.398-4.594-.912-6.465-1.018-1.272-.072-2.782-.077-3.702.922-.579-1.307-2.031-1.724-3.312-2.018-2.569-.591-5.324-1.013-7.973-1.042-1.413-.015-3.289.053-4.035,1.436-.301-1.514-2.326-1.78-3.628-1.948-2.634-.341-5.69-.399-8.354-.392-1.368-.012-3.104-.001-3.569,1.55-.297-.692-.795-1.038-1.489-1.28-2.112-.735-7.431-.308-9.724-.014-1.142.147-2.37.315-3.421.792-1.556.707-1.846,2.492-1.759,4.028.024-.145-.008-.124-.097.065l-.3-.705c-1.258-2.215-2.361-4.606-2.866-7.125l-.234-.227-.855-3.686c-.493-.702-.976-.407-1.116.37-.156.868-.187,2.34-.207,3.257-.123,5.661,1.271,11.257,2.731,16.67.194.72.446,1.424.641,2.143.129.041.121-.091.163-.183.607-1.322.856-2.132,2.17-2.964,1.066-.675,3.884-1.053,5.221-1.245,6.61-.946,13.816-1.032,20.454-.678,4.891.26,9.85.561,14.78,1.102,5.055.555,10.048,1.385,15.069,2.132,3.854.573,7.838.906,11.6,1.918,13.176,3.546,26.228,8.869,37.437,16.708.604.422,7.749,5.787,10.498,8.171,2.477,2.149,5.009,4.145,7.331,6.531,8.402,8.635,13.419,18.283,11.62,30.707l-.536,2.473c.594-.619,1.13-1.434,1.611-2.159,10.13-15.258,17.082-35.19,19.63-53.288.027-.189.658-5,.738-6.718Z" fill="#242021"/>
                <path d="M119.876,83.904c.293,2.173,1.711,5.321,2.8,7.241.089.158.479.77.601.817.11-.201.136-.443.08-.727-.688-2.987-1.521-9.357.607-11.749,1.146-1.287,4.424-1.019,6.029-.806,17.016,2.26,34.289,6.656,50.667,12.12,1.079.271,1.902.538,2.469.802,1.29.358,2.695.922,3.346,2.171l.334.855c.246-.939.174-2.24-.401-3.064-.118-.169-.459-.446-.639-.604-.212.02-.344-.076-.517-.162-2.47-1.225-4.993-2.105-7.551-3.09-10.361-3.991-21.024-7.593-31.7-10.671-4.574-1.319-9.195-2.673-13.865-3.669-3.805-.812-12.169-2.896-12.463,3.231-.12,2.488-.13,4.83.203,7.303Z" fill="#bf942e"/>
                <path d="M184.343,80.91l2.136,1.251c6.929,3.526,14.073,7.121,20.991,10.392,4.031,1.906,7.984,1.902,11.663-.899,1.538-2.005,3.276-4.097,4.356-6.401,7.542-16.094-13.141-28.474-24.992-34.282-14.906-7.305-37.95-14.549-44.848,6.671-1.087,3.343-2.304,8.595,1.359,10.779,2.664,1.589,6.679,2.717,9.64,3.9,6.674,2.667,13.229,5.465,19.696,8.588Z" fill="#0e523f"/>
                <path d="M235.16,57.679l.213.017c3.315,7.335,5.363,15.603,5.758,23.592l.2.181c1.282.565,2.984,1.748,4.155,2.137.507.169,6.317,3.193,9.026,5.222,6.156,4.61,11.824,10.264,15.976,16.732,2.075,3.803,3.936,7.865,4.089,12.288-.018.242-.065.484-.059.728l.105.862c1.391-4.635-.653-9.189-1.755-13.627-1.056-4.254-1.35-8.878-2.067-13.234-2.164-13.131-5.253-24.063-16.996-31.691-1.64-1.065-10.673-7.616-14.928-7.095-1.126.138-2.403.828-3.337,1.443l-.38,2.445Z" fill="#0e523f"/>
                <path d="M261.043,136.808c2.144-9.448-5.511-17.436-12.31-22.921-5.462-4.407-11.434-8.822-17.552-12.264-2.677-1.507-8.059-4.236-11.125-3.761-.412.164-.792.237-1.138.219.02-.189.132-.288.241-.421.31-.38.697-.823,1-1.147l1.531-1.717c1.899-2.707,3.183-3.807,6.637-2.767,2.545.767,5.496,2.385,7.769,3.813s4.516,2.895,6.761,4.365c10.559,6.129,21.392,15.121,22.929,27.988.709,5.934-.596,11.111-2.9,16.547-.041.097-.114.183-.189.27-.075.088-.161.167-.25.243" fill="#fff"/>
                <path d="M262.448,145.253c.229,1.558.02,3.485.124,5.105.06.938.216,1.864.417,2.78l.441-.725c7.458-15.44,7.767-32.059-3.787-45.455-4.427-5.133-9.935-8.867-15.615-12.457-4.232-2.675-9.43-6.089-14.468-6.705-1.213-.148-3.413,1.186-4.389,1.904-1.165.857-2.475,3.453-3.408,4.753-.365.508-.799.929-1.132,1.392-.15.208-.259.482-.47.67.485-.52,1.087-1.008,1.578-1.543,1.33-1.45,2.093-3.191,4.374-3.147,2.69.052,6.787,2.391,9.155,3.758,3.056,1.765,5.917,3.885,8.918,5.673,13.626,8.117,24.972,20.212,20.671,37.324-.578,2.299-1.456,4.515-2.407,6.676Z" fill="#bf942e"/>
                <path d="M218.919,98.079c-.409.268-.845.999-1.228,1.394-1.146,1.185-2.722,2.723-4.065,3.654-2.136,1.481-5.153,1.783-7.694,1.651-.984-.051-1.966-.228-2.95-.281-.12-.006-.359-.109-.352.065.433.068.898.051,1.327.126.423.074.936.262,1.357.328,2.581.406,5.052.712,7.573-.154,2.288-.786,4.058-2.392,6.617-1.968,3.047.504,7.555,3.546,10.196,5.251,9.382,6.057,18.725,12.573,25.928,21.188,1.304,1.559,2.501,3.132,3.603,4.857.652,1.02,1.203,2.105,1.889,3.102,2.229-7.97-3.126-15.228-8.585-20.391-2.465-2.331-5.15-4.333-7.848-6.376-5.235-3.963-10.536-7.85-16.557-10.683-2.2-1.036-7.007-3.206-9.211-1.764Z" fill="#bf942e"/>
                <path d="M123.276,91.962c.055.021.205.054.203-.037.136-1.579.168-3.204,1.827-3.918,1.835-.79,5.273-.92,7.311-1.018,1.66-.079,5.429-.387,6.616.893.259.28.305.683.614.895.073-.335.317-.896.56-1.131.921-.89,3.4-.589,4.611-.558,1.628.041,3.34.044,4.939.167,1.324.102,3.597.233,4.65,1.058.507.398.467.769.586,1.328.021.098-.006.226.126.21.144-1.188,1.188-1.665,2.253-1.822,2.476-.367,6.828.285,9.3.838,1.435.321,3.288.718,3.697,2.335.16.006.167-.24.286-.365,1.417-1.492,5.419-.51,7.257-.206,1.679.278,3.38.518,5.017.972l.072-.103c-9.597-3.504-19.552-6.299-29.542-8.56-7.038-1.593-14.102-3.102-21.249-4.09-2.221-.307-4.672-.897-6.889-.335-.574.145-1.209.344-1.632.766-1.936,1.933-1.525,7.497-1.13,10.076.133.869.435,1.726.518,2.606Z" fill="#fff"/>
                <path d="M163.347,37.763c1.741-.636,3.618-1.06,5.467-1.167.039-.17-.214-.113-.334-.13-.487-.068-.856-.004-1.288-.023-5.09-.223-10.179-.35-15.268-.3-3.387.033-9.104-.048-12.001,1.83-2.247,1.456-3.521,4.28-4.538,6.673-1.742,4.102-4.644,11.992-1.329,15.816,1.077,1.242,4.445,2.369,6.054,3.058,2.682,1.148,5.964,2.32,8.377,3.947.295.199.69.674.899.797.11.066.19-.008.159-.132-.579-.869-.802-1.9-.913-2.914-.266-1.456-1.666-2.251-2.886-2.864l-2.454-1.049c-2.385-1.112-5.688-2.922-5.505-5.975.192-3.198,1.759-7.155,3.222-9.999,1.17-2.273,2.449-3.921,4.968-4.695,2.618-.804,5.317-1.287,8.05-1.595,3.143-.266,6.249-.692,9.318-1.28Z" fill="#fff"/>
                <path d="M184.343,80.91c.373.48.994.702,1.489,1.034,3.28,2.524,4.765,4.995,4.751,9.199l-.166,3.105c-.058,1.328.981,2.392,2.215,2.701,3.768.944,7.841,1.725,11.68,2.277,2.707.389,5.542.468,7.932-1.08,2.332-1.51,4.433-3.54,6.215-5.663.394-.37.392-.461.674-.828-1.201.592-2.299,1.239-3.599,1.618-4.113,1.199-6.618-.231-10.184-1.96-7.03-3.407-13.968-7.004-21.007-10.403Z" fill="#bf942e"/>
                <path d="M148.634,65.22c-.082-.752-.263-2.617-.183-3.29-.124-.579-.467-1.063-1.03-1.452-2.193-1.58-2.678-2.53-2.108-5.28.591-2.85,1.713-5.693,2.981-8.309,1.184-2.443,2.028-3.65,4.56-4.703,2.272-.643,4.426-1.551,6.462-2.725,1.293-.551,2.678-1.205,4.03-1.699-1.209.037-2.391.281-3.588.427-4.138.504-9.199.871-13.165,2.046-3.052.904-4.088,2.007-5.605,4.725-1.498,2.684-3.139,7.199-3.389,10.236s2.68,4.849,5.066,6.033c2.195,1.09,4.805,1.553,5.968,3.99Z" fill="#bf942e"/>
                <path d="M201.657,44.876c1.993,1.155,4.166,2.235,6.236,3.27,1.963,1.065,3.913,2.101,5.851,3.107,1.245.571,1.898.844,3.151.131-.464,1.303.174,1.968,1.067,2.847,3.342,2.734,6.311,6.223,8.445,9.954.006.031-.015.067-.009.098l.089.108c.03.033.092.044.129.118.819,1.616,1.661,3.202,2.372,4.88.28.077.298-.084.299-.32-.434-4.341-.582-8.671-.33-12.972.248-6.57-5.294-10.523-10.558-13.227-2.733-1.404-6.315-3.109-9.165-1.218-2.104,1.326-3.839,2.328-6.33,2.863-.489.01-.905.131-1.247.362Z" fill="#fff"/>
                <path d="M241.33,81.469c-.098-.561-.023-1.164-.062-1.715-.351-4.93-1.544-10.29-2.991-15.006-.74-2.411-1.537-4.688-2.65-6.957-.066-.134-.119-.459-.136-.477-.179-.188-.167.058-.208.134-.027.051-.121.218-.123.231-.413,1.835-.655,3.815-1.039,5.701-1.499,7.367-3.993,16.68-7.524,23.332-.254.478-.713.939-.788,1.511l1.107-1.783c1.491-1.84,2.844-5.552,5.074-6.573,2.606-1.193,6.85.503,9.341,1.602Z" fill="#bf942e"/>
                <path d="M228.987,69.388c.078.184.207.348.287.533l.897,2.653.342-4.583c-.124-6.441,2.349-15.371-1.528-21.105-1.683-2.489-7.36-5.818-10.116-7.219-2.29-1.165-6.553-3.153-8.962-1.74-2.254,1.321-6.596,6.114-9.19,5.868l-1.524-.145,1.042.543c.524.138.975.425,1.421.683,1.332-.099,2.727-.45,3.962-.96,1.738-.717,4.384-2.896,6.09-2.934,2.502-.055,5.492,1.43,7.649,2.629,2.582,1.434,6.057,3.767,7.658,6.261,2.613,4.07,1.485,7.529,1.595,11.994.058,2.348.334,4.698.471,7.036.007.124.035.416-.094.486Z" fill="#0e523f"/>
                <path d="M148.451,61.93c.68-5.742,2.865-11.521,5.642-16.569.859-1.562,1.818-3.097,3.137-4.314.643-.593,1.4-1.049,2.087-1.585-.727.309-1.424.649-2.144.967-3.489,1.542-6.428,1.365-8.431,5.142-1.568,2.957-3.572,7.816-3.842,11.113-.208,2.55,1.561,2.996,2.976,4.5.229.244.356.513.576.747Z" fill="#0e523f"/>
                <path d="M139.484,92.61l.018-.422c-.413-.911-.367-2.241-.724-3.115-.134-.327-.247-.45-.547-.635-1.249-.77-4.836-.509-6.385-.41-1.617.104-3.972.244-5.484.708-.795.244-1.391.448-1.61,1.34-.265,1.082-.258,2.058-.321,3.135-.012.2-.322.585.102.659.251.044,1.028-.258,1.368-.323,4.217-.814,8.753-.929,13.041-.99.181-.003.362.045.542.052Z" fill="#fff"/>
                <path d="M122.783,61.672c-.055.372-.046.759-.107,1.13-.14.841-.432,1.677-.445,2.54-.014.916,1.109,1.305,1.856,1.636,2.332,1.034,6.043,2.422,8.495,3.034.732.183,1.755.571,2.242-.185l1.664-3.248c.068-.175.002-.109-.096-.164-.817-.458-2.073-.668-2.979-.983-.139-.048-.26-.153-.409-.205-3.406-1.184-6.847-2.301-10.221-3.555Z" fill="#fff"/>
                <path d="M139.984,92.558c.212.012.426.06.639.062,4.353.046,8.684.193,13.047.55.335.027.669-.032,1.028.094l.034-.344c-.283-1.04-.222-2.259-.535-3.272-.321-1.04-1.552-1.012-2.471-1.128-2.379-.3-4.797-.362-7.215-.399-.946-.014-1.986-.164-2.944.052-.54.122-.735.54-.859,1.043-.22.891-.281,1.917-.483,2.813-.044.194-.148.36-.241.529Z" fill="#fff"/>
                <path d="M170.035,94.721c-.263-1.159-.061-2.611-.658-3.667-.321-.567-1.875-1.039-2.512-1.185-2.224-.51-4.694-.803-6.949-.869-.822-.024-3.008-.193-3.459.637l-1.347,3.518,14.925,1.566Z" fill="#fff"/>
                <path d="M170.33,94.749c.897.11,1.81.142,2.708.253,4.044.504,8.089,1.192,12.13,1.752.225.031,1.306.339,1.412.23.027-.028.072-.414.127-.517l-1.251-2.532c-1.278-1.299-3.214-1.442-4.911-1.784-2.386-.48-5.087-1.145-7.523-1.103-.531.009-1.248.181-1.519.682l-1.173,3.018Z" fill="#fff"/>
                <path d="M218.022,30.49c-1.504-.172-2.776.478-3.398,1.857-.277.614-.646,1.653-.41,2.292.387,1.049,3.208,2.009,4.202,2.506,3.181,1.591,5.898,3.39,8.904,5.232.42.257,1.647,1.007,2.04,1.122,1.523.448,2.874-1.088,3.118-2.485.284-1.628-.974-3.285-2.073-4.354-2.509-2.44-8.947-5.777-12.382-6.169Z" fill="#0e523f"/>
                <path d="M136.997,66.593l-.578,4.144c.031.139.154.177.259.238.484.28,1.34.591,1.886.796,2.313.87,4.967,1.815,7.317,2.558.572.181,1.974.681,2.473.468.32-.136.671-.837.845-1.169.38-.722.613-1.633,1.129-2.25l-13.333-4.787Z" fill="#fff"/>
                <path d="M185.832,81.944c-.074.219.105.216.217.315,1.648,1.44,2.984,3.582,3.324,5.771.254,1.638-.096,2.729-.265,4.286-.154,1.408-.222,2.83-.393,4.236-.023.188-.136.36-.148.486-.031.353.481.255.713.306,5.2,1.157,10.395,2.337,15.678,3.077,5.451.764,8.813-2.133,12.114-6.055.502-.596.984-1.215,1.387-1.883-1.974,1.854-3.888,3.905-6.176,5.404-3.197,2.095-6.771,1.343-10.331.761-2.869-.469-5.719-1.126-8.568-1.707-1.477-.301-2.783-1.032-2.77-2.693.013-1.58.285-2.98.116-4.623-.381-3.694-1.913-5.68-4.898-7.681Z" fill="#0e523f"/>
                <path d="M150.71,71.565l-.36,3.783c-.032.336.924.79,1.203.908,1.916.809,4.004,1.428,5.97,2.132.9.322,1.849.783,2.748,1.081,1.584.524,1.701.063,2.483-1.17.343-.54.632-1.129.966-1.676l-13.01-5.058Z" fill="#fff"/>
                <path d="M164.109,76.706l-.402,3.639c.055.305,1.144.809,1.474.953,2.343,1.02,5.373,2.269,7.776,3.085.596.203,1.524.515,2.128.284.638-.243,1.412-2.173,1.916-2.721l-12.892-5.241Z" fill="#fff"/>
                <path d="M177.481,82.142c.076,1.063-.974,2.871-.05,3.708.508.46,1.912.996,2.595,1.297,1.823.805,4.484,1.57,6.037,2.71.361.265.588.625.912.921-.048-.351-.158-.751-.275-1.085-.586-1.675-2.046-3.497-3.42-4.601-1.683-1.351-3.806-2.164-5.8-2.951Z" fill="#fff"/>
                <path d="M118.123,71.045c.195-.022.193-.178.23-.323.523-2.036.755-3.808,1.664-5.766.544-1.171,1.317-2.525,2.277-3.381.016-.137-1.254-.487-1.485-.583-1.615-.676-2.875-1.562-3.93-2.956-.044,1.089-.032,2.264.042,3.352.159,2.305.483,4.844.79,7.143.112.843.217,1.686.411,2.514Z" fill="#fff"/>
                <path d="M128.47,59.237c.853.295,1.711.585,2.547.931.16.088.202-.116.159-.177-.022-.032-.553-.257-.688-.365-.545-.439-1.35-1.405-1.531-2.105-.553-2.149-.037-3.307-2.179-4.811-1.46-1.025-4.569-2.326-5.678-.251-.237.444-.763,1.914-.84,2.39-.029.182.015.746.05.94.153.839.973.879,1.633,1.141l.118-.214c-.788-3.741,3.136-3.634,4.398-.961l.551,1.8c.225.872.726,1.279,1.46,1.681Z" fill="#0e523f"/>
                <path d="M120.521,96.955l.775-1.089c.564-.653,1.025-1.158,1.822-1.521.257-.117.53-.134.752-.294-.547-.481-1.001-1.038-1.43-1.625-1.478-2.025-2.6-4.554-3.157-6.991l-.497-1.535c-.051,1.361-.081,2.745.017,4.105.219,3.045,1.119,5.973,1.718,8.95Z" fill="#fff"/>
                <path d="M121.944,56.931c.389.155.774.268,1.152.407,1.269-.005,2.453.406,3.553,1.23.608.21,1.212.458,1.821.669-.18-.318-.556-.485-.775-.764-.853-1.085-.678-2.99-1.821-3.929-1.132-.931-3.246-1.608-3.878.204-.238.682-.399,1.52-.053,2.183Z" fill="#bf942e"/>
                <path d="M207.893,48.146c.047.168.195.236.33.316,6.659,4,12.995,8.203,17.419,14.725.166.245.329.341.515.711.068.136-.004.32.251.287-.065-.359-.357-.787-.549-1.131-1.528-2.749-3.524-5.042-5.751-7.203-.766-.743-2.813-2.224-3.098-3.146-.203-.657.107-1.056.135-1.696l-1.344.619c-1.017.177-2.933-1.118-3.895-1.589-1.325-.648-2.694-1.234-4.012-1.893Z" fill="#0e523f"/>
                <path d="M123.096,57.338c1.181.436,2.368.82,3.553,1.23-.896-.827-2.304-1.789-3.553-1.23Z" fill="#0e523f"/>
                <path d="M226.487,64.391c-.031-.034-.054-.076-.089-.108.009.051.038.091.089.108Z" fill="#0e523f"/>
                <path d="M158.235,59.192l.636.334c1.579.299,3.109.807,4.644,1.235,2.679.747,5.403,1.063,7.005,3.631.344.552.646,1.572.948,1.979.441.593,4.169,2.085,5.072,2.466,4.814,2.03,9.694,3.877,14.488,5.962,3.995,1.738,8.03,3.795,12.118,5.294,1.038.38,2.229.878,3.329.69,1.864-.318,3.843-1.271,5.775-.785,1.618.407,4.321,2.034,5.881,2.839.452.233.996.479,1.481.632-.327-.396-.612-.882-.918-1.278-2.052-2.658-4.27-5.542-6.038-8.415-1.366-2.22-1.445-4.595-2.88-6.857-3.057-4.817-10.691-8.293-15.879-10.337-4.936-1.946-12.26-4.296-17.468-2.719-2.04.618-3.506,1.928-5.468,2.59-2.329.786-4.794,1.136-7.174,1.732l-5.554,1.007Z" fill="#fff"/>
                <path d="M204.63,45.952l.542.321c2.5.812,4.926,1.871,7.27,3.05,1.136.571,2.577,1.878,3.889,1.196.479-.249,1.207-1.205,1.826-.755.422.307-.057,1.144-.136,1.483-.281,1.196.213,1.651,1.005,2.417,2.204,2.133,4.654,4,6.304,6.655l1.286,2.694c-.027-.792-.178-1.585-.239-2.382-.096-1.256-.026-2.342-.382-3.579-1.067-3.714-4.915-6.346-8.008-8.327-3.043-1.949-7.008-4.148-10.754-3.294-.864.197-1.672.76-2.605.52Z" fill="#bf942e"/>
                <path d="M220.491,31.718c-1.495-.333-3.267-.347-3.628,1.475-.163.825,0,1.094.636,1.54,1.63,1.142,3.883,2.029,5.667,3.016,1.948,1.078,3.8,2.321,5.746,3.404.747.293,1.037.143,1.549-.388.879-.911.853-1.571.251-2.638-1.308-2.315-7.627-5.832-10.22-6.409Z" fill="#bf942e"/>
                <path d="M208.304,66.097c-3.639-3.95-9.54-6.874-14.488-8.905-5.231-2.147-14.557-5.469-19.317-1.064-1.786,1.652-2.864,5.58-2.843,7.959.017,2.031,2.642,3.304,4.229,4.022,5.662,2.563,11.69,4.627,17.425,7.159,3.219,1.421,6.576,3.267,9.874,4.431,2.425.856,3.334.562,4.986-1.251,3.765-4.132,3.948-8.211.134-12.351Z" fill="#242021"/>
                <path d="M173.015,63.372c.876.106,1.74.033,2.619.146,6.1.786,13.087,3.244,18.723,5.724,3.847,1.693,8.861,4.104,11.854,7.052.138.136.603.883.822.724-.131-.571-.497-1.135-.84-1.614-3.078-4.306-8.967-7.365-13.767-9.365-5.628-2.345-13.038-4.357-19.073-2.861-.13.032-.294.034-.337.194Z" fill="#fff"/>
              </g>
            </g>
            <g clip-path="url(#clippath-1)">
              <g>
                <rect x="7.176" y="128.895" width="240.888" height="28.154" fill="#065742"/>
                <rect x="7.176" y="125.514" width="240.888" height="3.381" fill="#b6952f"/>
              </g>
            </g>
            <g>
              <polygon points="64.371 36.244 60.167 56.99 63.822 56.99 66.636 43.385 68.704 51.024 72.201 51.024 76.346 30.594 72.828 30.594 70.252 43.477 67.889 36.244 64.371 36.244 64.371 36.244" fill="#00583d"/>
              <g clip-path="url(#clippath-2)">
                <path d="M77.999,45.426l.354-1.725h1.575c.979.005,1.699.49,1.623,1.756-.103,1.695-1.396,2.319-1.977,2.312h-2.057l.482-2.343-3.422-1.068-1.366,6.665h6.703c2.09-.007,5.026-1.906,5.24-5.243.175-2.713-.626-3.457-1.807-4.323.843-.804,1.067-1.369,1.039-2.637-.034-1.501-1.072-2.55-2.225-2.577h-5.922l-.581,2.835,3.487.699.23-1.128h.831c.574.065.835.477.791.974-.087.946-.757,1.461-1.344,1.468h-.776l.269-1.313-3.487-.699-1.082,5.28,3.422,1.068h0Z" fill="#00583d"/>
                <path d="M55.35,47.878c-.872,0-2.063-.218-1.905-1.126l2.241-10.544h-3.708s-2.033,9.562-2.435,11.453c-.402,1.891,1.421,3.745,5.022,3.745s5.942-1.782,6.374-3.819c.433-2.036,2.42-11.38,2.42-11.38h-3.745l-2.234,10.508c-.206.8-1.156,1.163-2.029,1.163" fill="#00583d" fill-rule="evenodd"/>
              </g>
              <path d="M96.773,36.011c-3.178-.408-9.561,1.002-10.965,7.605-1.404,6.604,4.548,8.273,7.766,7.791l.931-4.378c-3.117.705-5.353-.297-4.682-3.45.662-3.116,3.511-4.303,6.093-3.71l.857-3.858" fill="#00583d" fill-rule="evenodd"/>
              <path d="M104.246,37.561l-.669,3.15c-.211.994-1.011,1.832-2.343,1.832-1.305,0-1.688-.838-1.495-1.744l.688-3.238h.656l-.65,3.056c-.224,1.055.356,1.345.945,1.345.601,0,1.336-.277,1.56-1.332l.652-3.069h.656Z" fill="#00583d"/>
              <polygon points="108.505 37.561 109.14 37.561 108.109 42.415 107.372 42.415 105.738 38.493 105.724 38.493 104.891 42.415 104.255 42.415 105.287 37.561 106.064 37.561 107.658 41.481 107.671 41.481 108.505 37.561 108.505 37.561" fill="#00583d"/>
              <polygon points="109.893 42.415 109.238 42.415 110.269 37.561 110.925 37.561 109.893 42.415 109.893 42.415" fill="#00583d"/>
              <polygon points="115.17 37.561 115.907 37.561 113.104 42.415 112.408 42.415 111.669 37.561 112.399 37.561 112.905 41.698 112.919 41.698 115.17 37.561 115.17 37.561" fill="#00583d"/>
              <polygon points="119.175 42.415 115.592 42.415 116.624 37.561 120.159 37.561 120.036 38.142 117.156 38.142 116.84 39.629 119.496 39.629 119.373 40.211 116.716 40.211 116.371 41.833 119.298 41.833 119.175 42.415 119.175 42.415" fill="#00583d"/>
              <path d="M121.213,40.332h1.589c.784,0,.766.467.681.865-.039.182-.175.919-.144,1.217h.804l.023-.108c-.179-.115-.19-.216-.14-.487l.146-.879c.117-.676-.135-.798-.387-.913.35-.182.771-.446.923-1.163.218-1.028-.52-1.305-1.318-1.305h-2.244l-1.032,4.854h.656l.443-2.082h0ZM121.683,38.122h1.636c.324,0,.859.061.7.811-.152.717-.685.838-1.165.838h-1.521l.35-1.649h0Z" fill="#00583d"/>
              <path d="M128.571,38.98c.126-.75-.446-.987-.994-.987-.412,0-1.133.115-1.29.852-.088.412.174.547.444.615l1.318.318c.597.149.99.527.826,1.298-.244,1.149-1.38,1.467-2.211,1.467-.899,0-1.193-.27-1.368-.466-.334-.372-.328-.777-.232-1.231h.615c-.187.879.475,1.136,1.097,1.136.473,0,1.296-.122,1.445-.818.108-.507-.094-.669-.852-.859l-.945-.23c-.302-.074-.971-.297-.791-1.143.161-.757.812-1.501,1.989-1.501,1.697,0,1.65,1.014,1.564,1.548h-.615Z" fill="#00583d"/>
              <polygon points="130.18 42.415 129.524 42.415 130.556 37.561 131.212 37.561 130.18 42.415 130.18 42.415" fill="#00583d"/>
              <polygon points="131.915 37.561 135.856 37.561 135.732 38.142 134.09 38.142 133.181 42.415 132.526 42.415 133.434 38.142 131.791 38.142 131.915 37.561 131.915 37.561" fill="#00583d"/>
              <polygon points="137.502 42.415 136.845 42.415 137.261 40.461 136.045 37.561 136.809 37.561 137.706 39.893 139.594 37.561 140.365 37.561 137.916 40.461 137.502 42.415 137.502 42.415" fill="#00583d"/>
              <path d="M146.819,39.987c.223-1.048-.011-2.555-1.823-2.555s-2.687,1.507-2.909,2.555c-.223,1.048.011,2.555,1.823,2.555s2.686-1.507,2.909-2.555h0ZM146.143,39.987c-.243,1.143-1.055,1.974-2.11,1.974s-1.513-.831-1.27-1.974c.243-1.142,1.055-1.974,2.109-1.974s1.513.831,1.271,1.974h0Z" fill="#00583d"/>
              <polygon points="147.804 42.415 147.148 42.415 148.18 37.561 151.539 37.561 151.416 38.142 148.712 38.142 148.396 39.629 150.775 39.629 150.651 40.211 148.272 40.211 147.804 42.415 147.804 42.415" fill="#00583d"/>
              <polygon points="103.624 45.729 104.26 45.729 103.228 50.583 102.491 50.583 100.857 46.662 100.843 46.662 100.01 50.583 99.375 50.583 100.406 45.729 101.184 45.729 102.777 49.65 102.791 49.65 103.624 45.729 103.624 45.729" fill="#00583d"/>
              <path d="M109.253,48.156c.223-1.048-.011-2.555-1.823-2.555s-2.686,1.508-2.909,2.555c-.223,1.048.011,2.555,1.823,2.555s2.686-1.507,2.909-2.555h0ZM108.577,48.156c-.243,1.143-1.055,1.974-2.11,1.974s-1.513-.831-1.27-1.974c.243-1.142,1.055-1.974,2.109-1.974s1.513.832,1.271,1.974h0Z" fill="#00583d"/>
              <path d="M110.694,48.501h1.589c.784,0,.766.466.681.865-.039.183-.175.919-.144,1.217h.805l.023-.108c-.178-.115-.19-.216-.14-.487l.146-.879c.117-.676-.134-.798-.387-.913.35-.183.771-.446.923-1.163.218-1.028-.52-1.305-1.318-1.305h-2.244l-1.032,4.854h.656l.443-2.082h0ZM111.164,46.29h1.636c.325,0,.859.061.7.811-.152.717-.685.838-1.165.838h-1.521l.351-1.649h0Z" fill="#00583d"/>
              <polygon points="114.807 45.729 118.748 45.729 118.624 46.311 116.981 46.311 116.073 50.583 115.418 50.583 116.326 46.311 114.683 46.311 114.807 45.729 114.807 45.729" fill="#00583d"/>
              <polygon points="122.554 45.729 123.21 45.729 122.178 50.583 121.522 50.583 122.004 48.318 119.468 48.318 118.987 50.583 118.331 50.583 119.363 45.729 120.019 45.729 119.592 47.737 122.127 47.737 122.554 45.729 122.554 45.729" fill="#00583d"/>
              <polygon points="126.855 50.583 123.273 50.583 124.305 45.729 127.84 45.729 127.717 46.311 124.837 46.311 124.52 47.798 127.177 47.798 127.054 48.379 124.397 48.379 124.052 50.002 126.979 50.002 126.855 50.583 126.855 50.583" fill="#00583d"/>
              <path d="M128.893,48.501h1.589c.784,0,.766.466.681.865-.039.183-.175.919-.144,1.217h.805l.023-.108c-.179-.115-.191-.216-.14-.487l.146-.879c.117-.676-.134-.798-.387-.913.35-.183.771-.446.923-1.163.218-1.028-.52-1.305-1.318-1.305h-2.244l-1.032,4.854h.656l.442-2.082h0ZM129.363,46.29h1.636c.325,0,.859.061.7.811-.152.717-.685.838-1.165.838h-1.521l.351-1.649h0Z" fill="#00583d"/>
              <polygon points="136.844 45.729 137.48 45.729 136.448 50.583 135.712 50.583 134.077 46.662 134.064 46.662 133.23 50.583 132.595 50.583 133.627 45.729 134.404 45.729 135.997 49.65 136.011 49.65 136.844 45.729 136.844 45.729" fill="#00583d"/>
              <path d="M140.479,48.318h1.291c.534,0,1.107.135.962.818-.115.541-.533.886-1.216.886h-1.4l.362-1.704h0ZM139.341,50.583h2.089c1.075,0,1.789-.656,1.954-1.433.177-.831-.337-1.055-.628-1.183.587-.25.797-.696.864-1.014.141-.663-.206-1.224-1.112-1.224h-2.136l-1.032,4.854h0ZM140.909,46.29h1.19c.73,0,.953.257.857.71-.127.595-.552.784-1.181.784h-1.183l.317-1.494h0Z" fill="#00583d"/>
              <path d="M145.043,48.501h1.589c.784,0,.766.466.681.865-.039.183-.175.919-.144,1.217h.805l.023-.108c-.179-.115-.191-.216-.14-.487l.146-.879c.117-.676-.134-.798-.387-.913.35-.183.771-.446.923-1.163.219-1.028-.52-1.305-1.318-1.305h-2.244l-1.032,4.854h.656l.443-2.082h0ZM145.513,46.29h1.636c.325,0,.859.061.7.811-.152.717-.685.838-1.165.838h-1.521l.351-1.649h0Z" fill="#00583d"/>
              <polygon points="149.502 50.583 148.846 50.583 149.878 45.729 150.534 45.729 149.502 50.583 149.502 50.583" fill="#00583d"/>
              <polygon points="151.236 45.729 155.178 45.729 155.054 46.311 153.412 46.311 152.503 50.583 151.848 50.583 152.756 46.311 151.113 46.311 151.236 45.729 151.236 45.729" fill="#00583d"/>
              <polygon points="155.511 50.583 154.856 50.583 155.887 45.729 156.543 45.729 155.511 50.583 155.511 50.583" fill="#00583d"/>
              <path d="M160.291,47.149c.126-.751-.446-.987-.993-.987-.413,0-1.133.115-1.29.852-.088.412.174.547.444.615l1.318.318c.597.149.989.527.826,1.298-.244,1.149-1.38,1.467-2.211,1.467-.899,0-1.193-.27-1.368-.467-.333-.372-.328-.777-.232-1.23h.615c-.187.879.475,1.136,1.097,1.136.473,0,1.297-.122,1.445-.818.108-.507-.094-.669-.852-.859l-.945-.23c-.302-.074-.971-.297-.792-1.143.161-.757.813-1.501,1.989-1.501,1.697,0,1.65,1.014,1.564,1.548h-.615Z" fill="#00583d"/>
              <polygon points="165.372 45.729 166.028 45.729 164.996 50.583 164.34 50.583 164.821 48.318 162.286 48.318 161.805 50.583 161.149 50.583 162.181 45.729 162.837 45.729 162.41 47.737 164.945 47.737 165.372 45.729 165.372 45.729" fill="#00583d"/>
              <path d="M172.031,47.189c-.001-.852-.678-1.007-1.145-1.007-.879,0-1.727.649-1.998,1.927-.243,1.142-.024,2.021,1.179,2.021.426,0,1.206-.203,1.669-1.332h.636c-.66,1.832-2.164,1.913-2.529,1.913-1.102,0-2.031-.717-1.634-2.582.318-1.494,1.389-2.529,2.802-2.529,1.251,0,1.734.777,1.657,1.589h-.636Z" fill="#00583d"/>
              <path d="M177.781,48.156c.223-1.048-.011-2.555-1.823-2.555s-2.686,1.508-2.909,2.555c-.223,1.048.011,2.555,1.822,2.555s2.686-1.507,2.909-2.555h0ZM177.105,48.156c-.243,1.143-1.055,1.974-2.109,1.974s-1.513-.831-1.271-1.974c.243-1.142,1.055-1.974,2.11-1.974s1.513.832,1.27,1.974h0Z" fill="#00583d"/>
              <polygon points="178.822 50.002 181.283 50.002 181.159 50.583 178.043 50.583 179.075 45.729 179.73 45.729 178.822 50.002 178.822 50.002" fill="#00583d"/>
              <path d="M186.673,45.729l-.669,3.15c-.212.994-1.012,1.832-2.344,1.832-1.305,0-1.688-.838-1.495-1.744l.688-3.238h.656l-.65,3.056c-.224,1.055.356,1.345.944,1.345.602,0,1.337-.277,1.561-1.332l.652-3.069h.656Z" fill="#00583d"/>
              <path d="M190.677,50.583l.609-2.866c.03-.142.175-.757.271-1.21h-.013l-2.232,4.076h-.649l-.501-4.069h-.013c-.095.446-.212,1.061-.242,1.203l-.609,2.866h-.635l1.032-4.854h.94l.513,4.103h.014l2.251-4.103h.933l-1.031,4.854h-.636Z" fill="#00583d"/>
              <path d="M193.437,48.318h1.291c.534,0,1.107.135.962.818-.115.541-.533.886-1.216.886h-1.399l.362-1.704h0ZM192.3,50.583h2.089c1.075,0,1.789-.656,1.954-1.433.177-.831-.337-1.055-.627-1.183.587-.25.797-.696.864-1.014.141-.663-.206-1.224-1.112-1.224h-2.136l-1.032,4.854h0ZM193.868,46.29h1.19c.731,0,.953.257.857.71-.126.595-.552.784-1.181.784h-1.183l.318-1.494h0Z" fill="#00583d"/>
              <polygon points="197.579 50.583 196.924 50.583 197.956 45.729 198.611 45.729 197.579 50.583 197.579 50.583" fill="#00583d"/>
              <path d="M201.713,49.17l.18,1.413h.717l-.726-4.854h-.744l-2.857,4.854h.676l.807-1.413h1.947ZM200.092,48.589l1.232-2.136h.013l.262,2.136h-1.507Z" fill="#00583d"/>
            </g>
            <g>
              <g clip-path="url(#clippath-3)">
                <g id="ProfilePhoto">
                  <rect x="21.014" y="56.99" width="56.948" height="72.064" fill="#a3a3a3"/>
                </g>
              </g>
              <rect x="26.93" y="67.529" width="43.86" height="49.054" fill="none" stroke="#00583d"/>
            </g>
            <g>
              <text transform="translate(81.276 89.914)" 
                    font-family="HelveticaNeue-Medium, 'Helvetica Neue'" 
                    font-size="7.508" 
                    font-weight="500">
                WOLVES, TIMBER J.
              </text>
              <text transform="translate(81.321 101.026)" fill="#010101" font-family="HelveticaNeue-Medium, &apos;Helvetica Neue&apos;" font-size="7.508" font-weight="500"><tspan x="0" y="0">23013XXXX</tspan></text>
              <text transform="translate(81.342 112.136)" fill="#010101" font-family="HelveticaNeue-Medium, &apos;Helvetica Neue&apos;" font-size="7.508" font-weight="500"><tspan x="0" y="0" letter-spacing="-.055em">V</tspan><tspan x="4.175" y="0">ALID: 202X-202X</tspan></text>
            </g>
          </g>
        </g>
        <rect x="13.75" y="11.161" width="224.5" height="139.677" rx="14.164" ry="14.164" fill="none" stroke="#00583d" stroke-width="2"/>
      </g>
    </g>
  </g>
</svg>