<?xml version="1.0" encoding="UTF-8"?>
<!-- UNBC Student ID (portrait): Shield outline. Generated by templates/build.mjs; edit sources/unbc.json, not this file. -->
<svg xmlns="http://www.w3.org/2000/svg" xmlns:xlink="http://www.w3.org/1999/xlink" viewBox="772.661 3561.984 304.761 474.073" width="57.15mm" height="88.9mm" data-card-format="id-1" data-trim-box="781.127 3570.45 287.83 457.142">
  <defs>
    <style>
      .cls-1 { fill: none; }

      .cls-8 { }

      .cls-12, .cls-13, .cls-14, .cls-16, .cls-17 { fill: #00583d; }

      .cls-12, .cls-16, .cls-17 { font-family: HelveticaNeue-Medium, 'Helvetica Neue'; font-weight: 500; }

      .cls-12 { font-size: 20px; }

      .cls-13 { font-family: HelveticaNeue-Light, 'Helvetica Neue'; font-weight: 300; }

      .cls-13, .cls-17 { font-size: 10px; }

      .cls-24 { fill-rule: evenodd; }

      .cls-24, .cls-26 { fill: #fff; }

      .cls-14 { stroke: #035642; }

      .cls-28 { fill: #035642; }

      .cls-29 { fill: #231f20; }

      .cls-16 { font-size: 15px; }

      .cls-37 { isolation: isolate; }

      .cls-52 { clip-path: url(#clippath-35); }

      .cls-75 { letter-spacing: -.05em; }

      .cls-78 { opacity: .15; }

      .cls-81 { letter-spacing: -.09em; }
    </style>
    
    
    
    
    
    
    
    
    
    
    
    
    
    
    
    
    
    
    
    
    
    
    
    
    
    
    
    
    
    
    
    
    
    
    
    
    
    
    
    
    
    <clipPath id="clippath-35">
      <rect class="cls-1" x="772.661" y="3561.984" width="304.761" height="474.073"/>
    </clipPath>
    
    
    
    
    
  </defs>
  <g class="cls-37">
    <g id="Layer_2" data-name="Layer 2">
      
      
      
      
      
      
      
      
      
      
      
      
      
      
      
      
      
      
      
      
      
      <g id="Layer_23" data-name="Layer 23">
        <g class="cls-8">
          <rect class="cls-26" x="772.661" y="3561.984" width="304.761" height="474.073" data-name="card background"/>
        </g>
        <g class="cls-52">
          <g>
            <rect class="cls-28" x="1015.79" y="3561.984" width="61.632" height="474.073"/>
            <g>
              <polygon class="cls-26" points="1030.82 3979.54 1061.71 3985.8 1061.71 3980.36 1041.46 3976.17 1052.83 3973.09 1052.83 3967.88 1022.41 3961.71 1022.41 3966.95 1041.59 3970.79 1030.82 3974.3 1030.82 3979.54 1030.82 3979.54"/>
              <path class="cls-26" d="M1044.49,3959.25l-2.57-.53v-2.34c0-1.46.73-2.53,2.61-2.42,2.52.15,3.45,2.08,3.44,2.94v3.06l-3.49-.72-1.59,5.09,9.92,2.03v-9.98c-.01-3.11-2.84-7.48-7.81-7.8-4.04-.26-5.15.93-6.44,2.69-1.2-1.26-2.04-1.59-3.93-1.55-2.23.05-3.8,1.6-3.84,3.31v8.82l4.22.86,1.04-5.19-1.68-.34v-1.24c.1-.85.71-1.24,1.45-1.18,1.41.13,2.17,1.13,2.18,2v1.16l-1.96-.4-1.04,5.19,7.86,1.61,1.59-5.09h0Z"/>
              <path class="cls-24" d="M1048.15,3992.97c0,1.3-.32,3.07-1.68,2.84l-15.7-3.34v5.52s14.24,3.03,17.05,3.62c2.82.6,5.58-2.12,5.58-7.48s-2.65-8.85-5.69-9.49c-3.03-.64-16.94-3.6-16.94-3.6v5.58l15.65,3.33c1.19.31,1.73,1.72,1.73,3.02"/>
              <path class="cls-24" d="M1030.48,3931.3c-.61,4.73,1.49,14.24,11.32,16.33,9.83,2.09,12.32-6.77,11.6-11.56l-6.52-1.39c1.05,4.64-.44,7.97-5.14,6.97-4.64-.99-6.41-5.23-5.52-9.07l-5.74-1.28"/>
              <path class="cls-26" d="M1032.78,3920.17l4.69,1c1.48.31,2.73,1.51,2.73,3.49s-1.25,2.51-2.6,2.23l-4.82-1.02v-.98l4.55.97c1.57.33,2-.53,2-1.41s-.41-1.99-1.98-2.32l-4.57-.97v-.98h0Z"/>
              <polygon class="cls-26" points="1032.78 3913.83 1032.78 3912.88 1040.01 3914.42 1040.01 3915.52 1034.17 3917.95 1034.17 3917.97 1040.01 3919.21 1040.01 3920.16 1032.78 3918.62 1032.78 3917.46 1038.62 3915.09 1038.62 3915.07 1032.78 3913.83 1032.78 3913.83"/>
              <polygon class="cls-26" points="1040.01 3911.76 1040.01 3912.74 1032.78 3911.2 1032.78 3910.22 1040.01 3911.76 1040.01 3911.76"/>
              <polygon class="cls-26" points="1032.78 3903.9 1032.78 3902.81 1040.01 3906.98 1040.01 3908.02 1032.78 3909.12 1032.78 3908.03 1038.94 3907.28 1038.94 3907.26 1032.78 3903.9 1032.78 3903.9"/>
              <polygon class="cls-26" points="1040.01 3897.94 1040.01 3903.28 1032.78 3901.74 1032.78 3896.48 1033.65 3896.66 1033.65 3900.95 1035.86 3901.42 1035.86 3897.46 1036.73 3897.65 1036.73 3901.6 1039.14 3902.12 1039.14 3897.76 1040.01 3897.94 1040.01 3897.94"/>
              <path class="cls-26" d="M1033.62,3894.21v-2.44c0-.48.09-1.28,1.21-1.04,1.07.23,1.25,1.02,1.25,1.73v2.26l-2.46-.52h0ZM1036.91,3894.91v-2.37c0-1.17.69-1.14,1.29-1.01.27.06,1.37.26,1.81.21v-1.2l-.16-.03c-.17.27-.32.28-.72.21l-1.31-.22c-1.01-.17-1.19.2-1.36.58-.27-.52-.66-1.15-1.73-1.37-1.53-.33-1.94.77-1.94,1.96v3.34l7.23,1.54v-.98l-3.1-.66h0Z"/>
              <path class="cls-26" d="M1034.9,3883.95c-1.12-.19-1.47.66-1.47,1.48,0,.61.17,1.69,1.27,1.92.61.13.82-.26.92-.66l.47-1.96c.22-.89.78-1.47,1.93-1.23,1.71.36,2.18,2.05,2.18,3.29,0,1.34-.4,1.78-.69,2.04-.55.5-1.16.49-1.83.35v-.92c1.31.28,1.69-.71,1.69-1.63,0-.7-.18-1.93-1.22-2.15-.75-.16-1,.14-1.28,1.27l-.34,1.41c-.11.45-.44,1.45-1.7,1.18-1.13-.24-2.23-1.21-2.23-2.96,0-2.53,1.51-2.46,2.3-2.33v.92h0Z"/>
              <polygon class="cls-26" points="1040.01 3881.56 1040.01 3882.53 1032.78 3880.99 1032.78 3880.02 1040.01 3881.56 1040.01 3881.56"/>
              <polygon class="cls-26" points="1032.78 3878.97 1032.78 3873.1 1033.65 3873.29 1033.65 3875.73 1040.01 3877.09 1040.01 3878.06 1033.65 3876.71 1033.65 3879.16 1032.78 3878.97 1032.78 3878.97"/>
              <polygon class="cls-26" points="1040.01 3870.65 1040.01 3871.63 1037.1 3871.01 1032.78 3872.82 1032.78 3871.68 1036.26 3870.35 1032.78 3867.54 1032.78 3866.39 1037.1 3870.04 1040.01 3870.65 1040.01 3870.65"/>
              <path class="cls-26" d="M1036.4,3857.79c1.7.36,2.94,1.57,2.94,3.14s-1.24,2.25-2.94,1.89c-1.7-.36-2.94-1.57-2.94-3.14s1.24-2.25,2.94-1.89h0ZM1036.4,3856.78c-1.56-.33-3.8.02-3.8,2.71s2.24,4,3.8,4.33c1.56.33,3.8-.02,3.8-2.71s-2.24-4-3.8-4.33h0Z"/>
              <polygon class="cls-26" points="1040.01 3855.31 1040.01 3856.29 1032.78 3854.75 1032.78 3849.75 1033.65 3849.94 1033.65 3853.96 1035.86 3854.43 1035.86 3850.89 1036.73 3851.07 1036.73 3854.62 1040.01 3855.31 1040.01 3855.31"/>
              <polygon class="cls-26" points="1044.95 3921.1 1044.95 3920.15 1052.17 3921.69 1052.17 3922.78 1046.33 3925.22 1046.33 3925.24 1052.17 3926.48 1052.17 3927.42 1044.95 3925.89 1044.95 3924.73 1050.78 3922.36 1050.78 3922.34 1044.95 3921.1 1044.95 3921.1"/>
              <path class="cls-26" d="M1048.56,3913.72c1.7.36,2.94,1.57,2.94,3.14s-1.24,2.25-2.94,1.89c-1.7-.36-2.94-1.57-2.94-3.14s1.24-2.25,2.94-1.89h0ZM1048.56,3912.71c-1.56-.33-3.8.02-3.8,2.71s2.24,4,3.8,4.33c1.56.33,3.8-.02,3.8-2.71s-2.24-4-3.8-4.33h0Z"/>
              <path class="cls-26" d="M1045.78,3909.87v-2.44c0-.48.09-1.28,1.21-1.04,1.07.23,1.25,1.02,1.25,1.73v2.26l-2.46-.52h0ZM1049.07,3910.57v-2.37c0-1.17.69-1.14,1.29-1.01.27.06,1.37.26,1.81.21v-1.2l-.16-.03c-.17.27-.32.28-.72.21l-1.31-.22c-1.01-.17-1.19.2-1.36.58-.27-.52-.66-1.15-1.73-1.37-1.53-.33-1.94.77-1.94,1.96v3.34l7.23,1.54v-.98l-3.1-.66h0Z"/>
              <polygon class="cls-26" points="1044.95 3904.45 1044.95 3898.58 1045.81 3898.76 1045.81 3901.21 1052.17 3902.56 1052.17 3903.54 1045.81 3902.18 1045.81 3904.63 1044.95 3904.45 1044.95 3904.45"/>
              <polygon class="cls-26" points="1044.95 3892.91 1044.95 3891.93 1052.17 3893.47 1052.17 3894.45 1048.8 3893.73 1048.8 3897.5 1052.17 3898.22 1052.17 3899.2 1044.95 3897.66 1044.95 3896.68 1047.93 3897.32 1047.93 3893.55 1044.95 3892.91 1044.95 3892.91"/>
              <polygon class="cls-26" points="1052.17 3886.51 1052.17 3891.84 1044.95 3890.3 1044.95 3885.04 1045.81 3885.22 1045.81 3889.51 1048.03 3889.98 1048.03 3886.03 1048.89 3886.21 1048.89 3890.17 1051.31 3890.68 1051.31 3886.32 1052.17 3886.51 1052.17 3886.51"/>
              <path class="cls-26" d="M1045.78,3882.77v-2.44c0-.48.09-1.28,1.21-1.04,1.07.23,1.25,1.02,1.25,1.73v2.26l-2.46-.52h0ZM1049.07,3883.47v-2.37c0-1.17.69-1.14,1.29-1.01.27.06,1.37.26,1.81.21v-1.2l-.16-.03c-.17.27-.32.28-.72.21l-1.31-.22c-1.01-.17-1.19.2-1.36.58-.27-.52-.66-1.15-1.73-1.37-1.53-.33-1.94.78-1.94,1.96v3.34l7.23,1.54v-.98l-3.1-.66h0Z"/>
              <polygon class="cls-26" points="1044.95 3871.63 1044.95 3870.69 1052.17 3872.22 1052.17 3873.32 1046.33 3875.75 1046.33 3875.77 1052.17 3877.01 1052.17 3877.96 1044.95 3876.42 1044.95 3875.27 1050.78 3872.89 1050.78 3872.87 1044.95 3871.63 1044.95 3871.63"/>
              <path class="cls-26" d="M1045.78,3865.58v-1.77c0-1.09.38-1.42,1.06-1.28.89.19,1.17.82,1.17,1.76v1.76l-2.22-.47h0ZM1052.17,3867.91v-3.11c0-1.6-.98-2.66-2.13-2.91-1.24-.26-1.57.5-1.76.93-.37-.87-1.04-1.19-1.51-1.29-.99-.21-1.82.31-1.82,1.66v3.18l7.23,1.54h0ZM1048.8,3866.22v-1.92c0-.8.2-1.65,1.22-1.43.81.17,1.32.79,1.32,1.81v2.08l-2.54-.54h0Z"/>
              <path class="cls-26" d="M1045.78,3858.72v-2.44c0-.48.09-1.28,1.21-1.04,1.07.23,1.25,1.02,1.25,1.74v2.26l-2.46-.52h0ZM1049.07,3859.42v-2.37c0-1.17.69-1.14,1.29-1.01.27.06,1.37.26,1.81.21v-1.2l-.16-.03c-.17.27-.32.28-.72.21l-1.31-.22c-1.01-.17-1.19.2-1.36.58-.27-.52-.66-1.15-1.73-1.37-1.53-.33-1.94.77-1.94,1.96v3.34l7.23,1.54v-.98l-3.1-.66h0Z"/>
              <polygon class="cls-26" points="1052.17 3852.79 1052.17 3853.76 1044.95 3852.23 1044.95 3851.25 1052.17 3852.79 1052.17 3852.79"/>
              <polygon class="cls-26" points="1044.95 3850.2 1044.95 3844.33 1045.81 3844.52 1045.81 3846.96 1052.17 3848.32 1052.17 3849.29 1045.81 3847.94 1045.81 3850.39 1044.95 3850.2 1044.95 3850.2"/>
              <polygon class="cls-26" points="1052.17 3843.84 1052.17 3844.81 1044.95 3843.28 1044.95 3842.3 1052.17 3843.84 1052.17 3843.84"/>
              <path class="cls-26" d="M1047.06,3836.72c-1.12-.19-1.47.66-1.47,1.48,0,.61.17,1.69,1.27,1.92.61.13.82-.26.92-.66l.47-1.96c.22-.89.78-1.47,1.93-1.23,1.71.36,2.18,2.05,2.18,3.29,0,1.34-.4,1.78-.69,2.04-.55.5-1.16.49-1.83.35v-.92c1.31.28,1.69-.71,1.69-1.63,0-.7-.18-1.93-1.22-2.15-.75-.16-1,.14-1.28,1.27l-.34,1.41c-.11.45-.44,1.45-1.7,1.18-1.13-.24-2.23-1.21-2.23-2.96,0-2.53,1.51-2.46,2.31-2.33v.92h0Z"/>
              <polygon class="cls-26" points="1044.95 3829.16 1044.95 3828.18 1052.17 3829.72 1052.17 3830.69 1048.8 3829.98 1048.8 3833.75 1052.17 3834.47 1052.17 3835.44 1044.95 3833.91 1044.95 3832.93 1047.93 3833.57 1047.93 3829.79 1044.95 3829.16 1044.95 3829.16"/>
              <path class="cls-26" d="M1047.12,3819.24c-1.27,0-1.5,1.01-1.5,1.7,0,1.31.97,2.57,2.87,2.97,1.7.36,3.01.04,3.01-1.76,0-.63-.3-1.8-1.98-2.49v-.95c2.73.98,2.85,3.22,2.85,3.77,0,1.64-1.07,3.02-3.84,2.43-2.22-.47-3.76-2.07-3.76-4.17,0-1.86,1.16-2.58,2.37-2.47v.95h0Z"/>
              <path class="cls-26" d="M1048.56,3811.69c1.7.36,2.94,1.57,2.94,3.14s-1.24,2.25-2.94,1.89c-1.7-.36-2.94-1.57-2.94-3.14s1.24-2.25,2.94-1.89h0ZM1048.56,3810.68c-1.56-.33-3.8.02-3.8,2.71s2.24,4,3.8,4.33c1.56.33,3.8-.02,3.8-2.71s-2.24-4-3.8-4.33h0Z"/>
              <polygon class="cls-26" points="1051.31 3809.13 1051.31 3805.47 1052.17 3805.65 1052.17 3810.29 1044.95 3808.75 1044.95 3807.78 1051.31 3809.13 1051.31 3809.13"/>
              <path class="cls-26" d="M1044.95,3797.44l4.69,1c1.48.31,2.73,1.51,2.73,3.49s-1.25,2.51-2.6,2.23l-4.82-1.02v-.98l4.55.97c1.57.33,2-.53,2-1.41s-.41-1.99-1.98-2.32l-4.57-.97v-.98h0Z"/>
              <path class="cls-26" d="M1052.17,3791.48l-4.27-.91c-.21-.04-1.13-.26-1.8-.4v.02l6.07,3.32v.97l-6.06.75v.02c.66.14,1.58.32,1.79.36l4.27.91v.95l-7.23-1.54v-1.4l6.11-.76v-.02l-6.11-3.35v-1.39l7.23,1.54v.95h0Z"/>
              <path class="cls-26" d="M1045.78,3786.73v-1.77c0-1.09.38-1.42,1.06-1.28.89.19,1.17.82,1.17,1.76v1.76l-2.22-.47h0ZM1052.17,3789.06v-3.11c0-1.6-.98-2.66-2.13-2.91-1.24-.26-1.57.5-1.76.93-.37-.87-1.04-1.19-1.51-1.29-.99-.21-1.82.31-1.82,1.66v3.18l7.23,1.54h0ZM1048.8,3787.37v-1.92c0-.8.2-1.65,1.22-1.43.81.17,1.32.79,1.32,1.81v2.08l-2.54-.54h0Z"/>
              <polygon class="cls-26" points="1052.17 3781.2 1052.17 3782.18 1044.95 3780.64 1044.95 3779.66 1052.17 3781.2 1052.17 3781.2"/>
              <path class="cls-26" d="M1049.2,3777.46l-3.18-1.83v-.02l3.18-.39v2.24h0ZM1050.07,3775.05l2.1-.27v-1.07l-7.23,1.08v1.11l7.23,4.25v-1.01l-2.1-1.2v-2.9h0Z"/>
            </g>
          </g>
        </g>
        <g id="photo"><rect x="802.319" y="3589.072" width="189.103" height="225.962" fill="#ffffff"/></g><path class="cls-28" d="M990.43,3590.07v223.97h-187.11v-223.97h187.11ZM991.43,3589.07h-189.11v225.97h189.11v-225.97h0Z"/>
        <text class="cls-12" transform="translate(817.3645 3957.8191)" data-static="true"><tspan class="cls-75" x="0" y="0">V</tspan><tspan x="11.12" y="0">ALID: </tspan></text><text id="customValidYears" class="cls-12" transform="translate(817.3645 3957.8191)"><tspan x="-16.68" y="24">202X-202X</tspan></text>
        <g>
          <line class="cls-14" x1="802.62" y1="3848.25" x2="991.1" y2="3848.25"/>
          <text class="cls-16" transform="translate(804.4377 3842.209)" id="fullName_Last_Comma_First_MiddleInitial_AllCaps"><tspan x="0" y="0">WO</tspan><tspan class="cls-81" x="25.56" y="0">L</tspan><tspan x="32.79" y="0">VES, TIMBER J.</tspan></text>
          <text class="cls-13" transform="translate(804.5275 3861.0237)" data-static="true"><tspan x="0" y="0">NAME</tspan></text>
        </g>
        <g>
          <line class="cls-14" x1="802.63" y1="3887.55" x2="991.11" y2="3887.55"/>
          <text class="cls-16" transform="translate(804.4554 3881.5127)" id="studentId"><tspan x="0" y="0">230135918</tspan></text>
          <text class="cls-17" transform="translate(804.5452 3900.3271)" data-static="true"><tspan x="0" y="0">STUDENT NUMBER</tspan></text>
        </g>
        <g class="cls-78">
          <path class="cls-29" d="M984.75,3897.99v-64.85h-155.85v63.91c.82,20.35,6.49,55.45,31.8,83.33,20.03,22.07,28.36,30.34,46.36,43.52h-.04c18-13.19,26.66-21.17,46.36-43.52,32.31-36.65,31.37-82.39,31.37-82.39"/>
          <path class="cls-26" d="M979.22,3899.59s.31,41.82-28.62,74.9c-18.11,20.71-26.5,29.71-43.12,41.89h.03c-16.62-12.18-24-20.1-42.81-40.19-30.11-32.17-30.11-76.6-30.11-76.6h144.62Z"/>
          <rect class="cls-26" x="834.6" y="3838.4" width="144.62" height="55.71"/>
          <path class="cls-29" d="M901.66,3884.71s1.37,4.79,5.74,4.74c3.48-.04,4.68-4.78,4.68-4.78h19.4s.22-36.01.22-36.01l-1.52-.87-.87.87-3.91-3.25s-1.95,1.3-3.9,1.08c-1.95-.22-3.47-2.6-7.16-2.82-3.69-.22-6.94,1.95-6.94,1.95-5.64-3.04-11.93,1.08-13.88,1.08s-4.99-.65-4.99-.65l-.87,1.74-3.73-.27-1.26.49v36.7h18.99Z"/>
          <polygon class="cls-26" points="888.31 3849.1 884.83 3850.72 884.83 3880.1 888.31 3876 888.31 3849.1"/>
          <path class="cls-26" d="M890.04,3848.45v27.12c3.47.65,5.86.65,7.37-.43,1.52-1.08,4.77-3.04,8.24-1.08l.22-26.47c-2.39-1.74-6.51-.87-7.81,0-1.3.87-5.21,1.95-8.03.87"/>
          <path class="cls-26" d="M908.26,3847.8l-.22,26.47s3.04-1.3,5.42-.43c2.39.87,6.07,2.82,10.63,2.17l.22-27.98s-1.74,1.08-3.25.65c-1.52-.43-5.42-2.82-7.38-2.6-1.95.22-5.42,1.74-5.42,1.74"/>
          <polygon class="cls-26" points="926.49 3848.88 926.05 3876.65 929.31 3879.68 929.31 3851.49 926.49 3848.88"/>
          <path class="cls-26" d="M905.88,3876.87s-3.9-1.95-5.86-.65c-1.95,1.3-5.21,3.47-10.2,1.52l-4.23,4.96,20.06.25s-1.41-.94-1.41-1.52c0,0-3.18-1.3-5.35-.29-2.17,1.01-4.05.72-4.05.72,0,0,4.19-2.46,5.64-2.46s4.19.72,4.19.72l.58-.58s-3.18-1.73-5.06-.72c0,0,2.07-2.3,5.4-.27l.97-.74-.68-.94Z"/>
          <path class="cls-26" d="M909.16,3877.37l.29.87c.72-.43,2.17-.43,3.62.29,1.45.72,2.75,2.17,2.75,2.17,0,0-2.89-1.01-3.76-1.3-1.29-.43-2.6-.15-2.6-.15l.43.43c.87-.58,2.75,1.01,3.76,1.3,1.01.29,5.35,1.16,5.35,1.16-.87.14-6.65.14-7.52-.43s-1.73-.43-1.73-.43c.72,1.45-.83,1.88-.83,1.88l19.92-.16-4.3-4.61c-3.47.43-8.73-.77-10.63-1.73-1.99-1.01-3.58-.43-4.74.72"/>
          <path class="cls-29" d="M950.41,3888.82s1.03-2.17,1.48-2.28c0,0,.46.68.91.57.46-.11,1.03-.68,1.83-.8.8-.11,1.26-.34,1.26-.34,0,0-.8,1.37-.91,1.83-.11.46-.8,1.71-.46,2.4.23.46.57.8.57.8,0,0-.46.8,0,1.71,0,0,.46-1.14.8-1.48,0,0,.68-.34.68-.68s-.57-1.26-.34-1.83c.23-.57.69-2.28,1.49-2.4l1.25.46s.34.91.11,1.48c-.23.57-.68,1.83-.11,2.4,0,0,.8,1.26.57,1.94,0,0,.68-.91.68-1.71,0,0,.91-.23.91-.8s-.11-1.48-.46-2.17c-.34-.69-.46-1.83-.46-1.83,0,0,1.14.11,1.83-.11.69-.23,1.94.11,1.94.11,0,0-.46.46.11,1.03.57.57.8.34.8.34,0,0,.46.46.23,1.26,0,0,.69-.46.8-1.37,0,0,.23-1.14-.34-1.94-.57-.8-1.14-1.14-1.94-1.25-.8-.11-2.06.91-2.51.68-.46-.23-.57-1.26-.57-1.26l1.68-4.84c.87-.43,2.6,2.6,3.04,1.3.43-1.3-1.3-5.86-1.3-5.86l1.08-.22,11.71,10.85v-12.58l-.87-1.3c1.52-.22,1.08-2.17,1.08-2.17-1.08-1.52-4.77-3.47-8.68-5.64,2.39-3.69,4.12-9.33,4.56-11.28.43-1.95-.43-2.39-1.08-1.52-.65.87-2.6,2.39-4.34,4.12-1.74,1.74-6.51,3.47-6.51,3.47-5.64-3.04-4.77-9.54-5.86-13.23-1.08-3.69-3.47-4.56-8.03-3.69-4.56.87-4.77,3.9-6.29,5.64-1.52,1.74-3.9,3.25-3.47,3.9.43.65,6.07.87,6.07.87-4.34,4.99-2.6,11.06-1.08,13.45,1.52,2.39,6.94,6.07,9.11,7.16-.87.43-2.82,1.74-2.17,1.95.65.22,3.69-.22,3.69-.22v.87l-1.52,1.3c-1.76-1.76-4.52-1.25-5.96-.5-1.2.63-.74,1.31-.74,1.31-.23.86.23,1.48.23,1.48,0-.45.22-.85.59-1.17.87-.75,2.56-1.03,4.09-.42-.68,1.03-1.14,1.54-1.14,1.54-1.94-.06-3.37.17-4.74,1.88-.46.58-.54,1.26-.34,1.66-.06.8,1.07,1.38,1.07,1.38-.09-.56-.38-1.04.04-1.3.41-.25.45-.81.82-1.31.38-.5,1.89-.66,2.74-.89.61-.16.74.51.74.51,0,0-1.15,1.15-1.54,1.89-.2.38-.67,1.92-.11,2.23.11,1.08.57,1.2.57,1.2,0,0-.11-.8.23-1.25.74-.34.86-1.26,1.08-1.71.33-.65.51-1.6,1.37-1.48,2.28.17,2.85-2.74,2.85-2.74.8-.57,1.94.91,2.17,1.48.23.57.63,1.66.97,1.89.34.23.11,1.25.11,1.25.34,0,.29-1.14.86-1.36.45-2.32-2.46-4.52-3.49-4.86-.23-.91.76-2,.76-2,0,0,2.39.65,3.04.43.65-.22-.43-1.74-.43-1.74l2.17,1.3c-1.95,1.52-3.69,4.12-2.39,4.12,1.79-.89,3.04-.22,3.04-.22l-1.33,4.83s-1.14.91-1.94.8c-.8-.11-1.6-.34-2.17-.23-.57.11-1.77-.15-2.4.23-.57.34-.19.88-.19.88l-1.19.49s-.23,1.94-.46,3.31"/>
          <path class="cls-26" d="M947.02,3842.5c1.53-.05,4.38.09,5.33,1.45,1.52,2.17,1.28,5.65,1.06,7.38-.22,1.74,1.83,4.49,3.27,6.01l.57-.31s-2.78-3.49-2.93-5.32c-.18-2.2,1.19-7.91-2.28-9.21-3.47-1.3-6.17-.84-7.54.68-.83.92-1.67,1.67-1.37,2.28,0,0,1.75-2.89,3.88-2.97"/>
          <path class="cls-26" d="M946.63,3845.1h.87s1.13,3.34,2.82.22l.87.87s-1.04,1.86-2.56,1.64c-1.52-.22-1.99-2.73-1.99-2.73"/>
          <path class="cls-26" d="M943.9,3852.7c-.63,1.62-1.19,2.95-1.61,5.2-.65,3.47,1.74,5.86,1.74,5.86l.65-.43c-1.74-2.82-1.3-4.77-1.09-6.29.14-.96.97-2.88,1.73-4.77l-1.42.44Z"/>
          <path class="cls-26" d="M974.18,3868.96c1.79.89-1.52,1.52-3.9,2.39-2.39.87-7.81,2.17-12.8,1.09-4.99-1.09-7.16-3.47-9.11-5.42-1.95-1.95-2.39-4.56-2.39-4.56l.43-.65c2.82,2.6,4.99.87,6.07-1.08,3.25,1.3,2.39-2.17,2.39-2.17l.87.43c1.08,3.9-3.25,3.04-3.25,3.04-.43,2.17-2.82,2.82-4.34,2.17,1.3,3.69,7.37,7.37,11.93,7.37s8.68-1.08,11.71-2.17c0,0,1.72-.76,2.39-.43"/>
          <path class="cls-26" d="M952.95,3865.16l-1.3,1.08c2.17,2.39,7.16,5.42,13.23,3.69,0,0,.43-.87-1.08-.65-1.52.22-8.24.43-10.85-4.12"/>
          <path class="cls-29" d="M910.35,3903.61s1.45,2.89,2.89,3.47c1.45.58,1.45,1.74,1.16,3.18-.29,1.45-.58,2.31.29,3.47.87,1.16.58,3.47,0,4.63-.58,1.16.58,2.03,2.31,1.45,1.74-.58,3.47,1.45,2.89,2.31-.58.87-2.6,6.36-.29,6.36s3.76,1.73,2.89,2.89c-.87,1.16.87,4.63-1.16,5.5-2.02.87-1.45,2.31-1.45,2.31,0,0,4.63,0,5.5,1.45.87,1.45,1.74,2.6.29,4.05-1.45,1.45-.58,3.47-.58,3.47,0,0,1.45.58,2.6.29,1.16-.29,2.6,1.73,1.16,2.6-1.45.87-.58,2.31-.58,2.31,0,0,1.45,1.16,2.59.58,1.14-.58,2.33,2.89.6,3.76-1.74.87-2.6,2.6-2.6,2.6,0,0,2.6-.29,2.6,1.16s-1.74,2.6-1.45,3.76c.29,1.16,2.03,2.02,3.18,1.44,1.16-.58,4.63.29,3.18,1.74-1.45,1.45-2.31,3.76-3.47,4.05,0,0,.29,1.16.29,2.31s-2.32,2.03-4.05,1.74c-1.74-.29-6.65-.29-8.1.58-1.45.87-2.89,1.73-4.63,1.45-1.74-.29-4.05-.58-4.05-.58,0,0,.47,5.75,1.38,5.98,2.25.56,7.01,1.54,9.03,2.99,2.02,1.45,3.76,3.18,3.47,7.23,0,0-1.74-4.63-6.65-4.63,2.03,3.18,4.34,9.26-2.31,13.88.58-2.31.87-7.23-3.18-9.83-1.16,4.34-2.6,11.86-7.52,12.73,0,0,5.5-9.55.29-13.31-3.18,2.31-6.36,6.07-5.79,8.97-1.73-.87-5.5-5.5-.58-10.12-3.47-.58-6.94-.58-9.26,3.18.87-4.63,4.14-10.23,11.08-9.94,0,0,3.21-3.85,2.06-6.16-4.92.58-7.93-1.25-9.66-.38-1.74.87-2.89,2.02-4.34,1.73-1.45-.29-1.16-2.89,0-3.76,0,0,0-1.74-1.45-1.45-1.45.29-2.6-.58-2.31-1.45s-2.31-.29-4.05-1.16c-1.74-.87,1.45-2.32,2.6-2.32s4.34-3.18,5.5-3.18c0,0-1.16-2.31-3.18-2.89-2.03-.58-3.47-2.89-3.47-3.76s.87-1.16,2.31-1.45c1.45-.29,4.05-1.16,4.05-1.16,0,0,3.18-2.6,4.92-1.45,1.74,1.16,2.03-.29,2.03-.29,0,0-1.16-1.45-2.6-3.18-1.45-1.74-1.16-2.89-1.16-2.89,0,0-1.16,0-2.31-1.16-1.16-1.16.58-2.6,2.31-2.6s3.76-.29,3.76-.29l1.45-1.73s-.87-.58-3.76-1.45c-2.89-.87-2.89-1.74-1.45-3.18,1.45-1.45.29-2.31.29-2.31,0,0-1.74-1.16-2.03-2.31-.29-1.16,2.03-3.47,3.47-2.6,1.45.87,2.31,0,2.31,0v-3.18s-1.74-2.6-1.16-3.76-.58-1.74,3.47-.29l1.45-1.45s-.29-1.45-.87-2.89c-.58-1.45-1.16-2.89,0-4.34,1.16-1.45,2.89-2.6,2.89-2.6l2.31-3.18s-2.03-.87-1.45-2.03c.58-1.16,4.34-4.63,6.07-4.92"/>
          <path class="cls-29" d="M859.73,3850.41s-2.08-3.96-.42-6.25c1.67-2.29,5.21-4.38,9.17-2.71,3.96,1.67,8.13,5.42,9.17,8.13,0,0,0,1.04-1.25.83-1.25-.21-3.12-.21-2.92,1.04.21,1.25,2.08,3.33,1.88,6.04-.21,2.71-1.25,7.29-5.42,10-4.17,2.71-6.67,3.33-6.67,3.33,0,0,0,.83,1.04,1.04,1.04.21,1.87.62,1.87.62l-.42,1.04s-1.04.62-.42,1.04c.62.42,6.04.21,6.04.21,0,0,.29-.24,1.38-.35,1.1-.11,2.16.98,2.16.98l-.84.08s0,.57-.44.51c-.43-.06-3.22-.37-3.22-.37,0,0,1.92.39,2.48.78.71.51,1.47,1.27,1.18,2.11l-.62.63.32,1.52-.59-.59-.57-.94s-.48.54-1.11-.08c-.62-.62.48-1.37-.56-1.79-1.04-.42-2.92.21-2.92.21,0,0,1.87,1.46,1.87,2.71,0,0,.21,1.46-.83,1.04,0,0,1.04,1.67.42,2.29,0,0-.21-1.25-1.04-1.87l-1.25-.63s.42-1.46-.63-2.08c-1.04-.62-1.67-1.25-2.5-1.04,0,0-2.29.21-2.71,1.25l-.53.65-.3.81v-.83s-1.25-1.04,0-1.88c1.25-.83,2.71-1.87,2.71-1.87l-1.04-2.29s-1.67,1.46-2.29,1.46-1.04-2.29-1.04-2.29l-2.29.83s1.67,1.67,1.25,2.5c-.42.83-1.46.83-1.46.83l2.29,4.38s3.54.21,4.79.83c1.25.62,3.96,2.5,3.54,3.33,0,0,.83,1.25.62,2.08,0,0-.62-1.04-1.25-1.46,0,0-.63.21-1.25,0-.62-.21-2.08-2.08-2.92-1.87,0,0,2.29,3.12,2.08,3.75-.21.62-.07,2.57-.76,2.85-.69.28.14-2.22-.69-2.08,0,0-.69.28-1.25.28s-.69-1.11-.56-1.67c.14-.56-1.39-1.94-1.39-1.94,0,0,.28,1.94.14,2.78-.14.83-.55,1.11-.55,1.11,0,0,.55,1.39-.28,1.53-.83.14-1.25-1.25-1.25-1.25,0,0-1.11-.14-1.39-.55-.28-.42.14-1.67.56-2.22.42-.55-.42-2.92-.42-2.92,0,0-2.92-.14-3.61.28-.69.42-.83,1.81-.83,1.81,0,0,0,.42-.55.83-.56.42-.83-.42-.69-.83,0,0-.69-.69-.56-1.25.14-.56.56-2.22,1.11-2.5.56-.28,1.53-.56,1.94,0,.42.55,2.78-.56,2.78-.56,0,0-3.06-5.28-2.64-5.97l-2.63,2.15-3.05-1.3-10.45,6.71.43-8.68,2.36-1.95s-2.36-.42-2.64-.97c-.28-.56-.14-1.67.97-2.08,1.11-.42,4.44-2.36,6.8-4.31-1.39-1.67-2.92-6.37-2.08-12.64.28-2.08,2.08-.14,3.06.83.97.97,5.28,3.75,7.36,4.72,0,0,3.47-1.53,4.72-2.92,1.25-1.39,1.81-3.61,1.46-5"/>
          <path class="cls-26" d="M864.37,3845.53l.44-.73c.88,2.34,2.48,2.49,3.04.83l.83,1.04c-.8,1.79-4.02,1.64-4.31-1.14"/>
          <path class="cls-26" d="M872.78,3848.56s1.97.85,2.52,1.1c0,0-2.15-.16-2.74,0-.59.16-1.1.69-.96,1.59.28,1.81,2.08,3.47,1.94,5.28-.14,1.81,0,5.42-4.17,8.47,0,0,2.64-3.47,2.64-5.42s0-4.44-1.25-6.53c-1-1.67.22-4.44,2.01-4.49"/>
          <path class="cls-26" d="M852.85,3871.8c-5.42.69-9.15-.43-11.65-.98l15.82-10.96-.42-1.25-16.94,12.22c2.78,3.61,12.78,2.5,16.67,1.53,3.89-.97,6.81-2.78,8.33-5,1.53-2.22,1.81-3.19,2.22-5.83.42-2.64-.28-4.3-1.39-5.83l-.28.42s.28,1.11.42,2.22c.11.85-.11,2.74-.41,4.15-1.72-.17-2.19-1.98-1.26-3.04l-.42-.56c-5,1.95-2.78-2.64-2.78-2.64l-.56-.83-1.94,1.53c.69-.28.97,1.11.97,1.11-1.81,2.92.69,3.47,2.22,3.33-.14,1.44,1.11,2.64,3.47,2.22-.42,1.25-1.28,2.99-2.64,4.17-1.36,1.18-4.03,3.33-9.44,4.03"/>
          <path class="cls-26" d="M859.18,3864.02l-.08-1.11s-2.22,0-2.5-1.39l-11.13,7.87s.55.77,1.64.33c1.1-.44,9.21-6.53,9.21-6.53,0,0,0,.69.97.83l-8.86,6.03s.55.55,1.64.22l9.1-6.25Z"/>
          <path class="cls-26" d="M911.8,3949.38s1.74-1.52,3.25-2.39c1.52-.87,4.34-1.52,5.86-.43,1.52,1.08,2.44,3.34,4.95,4.02,0,0,.86,1.2-.23,2.28-1.08,1.08-5.37,1.78-7.54.91-2.17-.87-4.13-.5-4.78.16-.65.65,2.17,1.52,3.04,1.95.87.43,3.9,0,5.21-.22,1.3-.22,4.34-.43,4.34-.43l1.79,1.06,1.6.91s-3.6,1.5-4.26,1.72c-.65.22-1.43.83-1,1.48.43.65,2.34,1.36,3.42,1.14,1.09-.22,1.48,1.07.83,1.93-.65.87.05,3.52-.6,3.09-.65-.43-5.69-1.79-5.69-.92s1.95,1.52,1.95,1.52c0,0,2.82.22,4.12.87,1.3.65,3.69.65,4.34.65s.87.65.22,1.3c-.65.65-1.74,2.17-1.74,3.04s-.87,1.74-1.95,1.52c-1.08-.22-3.69-.65-5.42-.65s-4.55,1.08-4.99,1.74c-.43.65-.65.43-2.82.43s-4.99-.87-4.99-.87c0,0-1.3.87-.87,1.73,0,0,1.3,1.09,1.08,2.39-.22,1.3-.13,4.18.09,4.83.22.65,2.08,1.24,3.38,1.67,1.3.43,3.9,1.08,4.77,1.3.87.22,4.41,2.05,4.41,2.05-1.83-.46-5.92-.75-6.57-.1l.87,1.3s1.52,2.6,1.52,3.25,0,2.6-.22,3.25c-.87-1.52-2.6-4.99-5.86-5.42l-1.3,1.08c-.22,2.39-.43,4.12-1.74,6.94.22-3.47-.43-6.51-2.6-8.46-2.17.43-6.51,3.9-7.16,5.64l-.43,1.74s-1.08-1.3-.43-2.82c.65-1.52,1.95-3.25,3.04-3.9l.22-1.3c-2.6,0-4.99-1.74-7.59-.22.43-1.3,2.39-3.25,5.86-3.25,0,0,2.39-.22,2.6-.87.22-.65,2.45-3.72,2.45-5.55,0-.69-.28-3.35-.28-3.35l-1.08-.87c-1.08.43-1.53.34-4.57.34s-2.81-.47-4.11-.69c-1.3-.22-2.79,1.36-3.65,1.14-.87-.22.23-1.63.23-2.28s-.97-1.83-2.05-1.83-2.98-1.45-2.98-1.45c0,0,1.3-1.73,2.6-1.95,1.3-.22,3.69-1.52,4.77-1.3s4.99.65,5.86.22c.87-.43,4.12-1.3,4.99-.65.87.65,2.6,1.74,3.69,1.52,1.08-.22,2.6-1.74,3.25-2.39.65-.65,1.52-.22,2.39.43.87.65,2.17,1.95,2.17,1.95,0,0,1.08-.65.65-1.52s-2.39-2.82-4.12-2.82-3.04,2.39-3.91,2.82c-.87.43-2.17-.65-2.17-.65,0,0-1.52-1.3,0-1.95,1.52-.65,1.52-2.39.22-2.17-1.3.22-3.04,1.3-2.39,2.6,0,0-2.28-.44-2.93-.22-.65.22-3.01.7-3.88.91-.87.22-1.65.61-2.52.39-.87-.22-2.6-.43-2.6-.43l-1.95-1.3-2.6-2.17-1.52-1.74s1.52-1.08,2.17-1.3c.65-.22,2.39-.43,3.25-1.09.87-.65,2.86-.12,3.95.1,1.08.22,2.76-.72,3.2-1.37.43-.65.67-2.63,2.62-1.98,1.95.65,2.39-.22,2.39-.22,0,0-.22-1.3.22-2.17.43-.87-.87-.43-1.52.22-.65.65-1.74.87-2.6.65-.87-.22-2.17.65-2.17.65,0,0-1.52.22-2.17-1.3-.65-1.52-1.52-3.69-1.52-3.69,0,0-1.18-.74-1.18-1.52,0-.91,2.77-.01,3.43-.23.65-.22,3.61-1.07,4.48-.63.87.43,3.47.22,4.56.22s3.69.87,3.69.87c0,0-.87,1.3-.22,1.74.65.43-.65,1.08-1.08,1.95-.43.87,2.17,1.52,2.39.65.22-.87.22-3.25.22-3.25"/>
          <path class="cls-26" d="M909.85,3907.08s2.6,1.74,2.6,2.6-.43,3.04-.22,3.9c.22.87,1.09,3.04,1.09,3.04,0,0-1.3,1.74-.43,3.25.87,1.52,3.47,1.95,4.12,2.17.65.22,0,2.17-.22,3.25-.22,1.08-1.09,3.9,0,4.56,1.08.65-1.74,1.08-3.04.65-1.3-.43-2.39-1.08-3.04-1.74-.65-.65-1.95-.87-2.39,0-.43.87-1.08,1.95.22,1.95s2.39,1.08,3.69,1.3c1.3.22,4.56.87,5.64,0,1.08-.87,1.52-.22,1.74.43.22.65.43,3.04-.43,3.9-.87.87-3.25,2.17-2.39,3.04.87.87,3.47,1.09,4.34,1.74.87.65,1.52,2.6,1.08,3.25-.43.65-1.73-.65-3.47-.43-1.74.22-4.56,1.3-5.42,1.95-.87.65-3.18-.22-4.81-.12-2.33.14-3.87-.75-4.95-.75s-3.25-1.74-3.25-1.74c0,0-1.3-1.52-2.39-1.73-1.08-.22-1.95-2.17-1.52-2.82.43-.65,1.3-2.6,0-3.47-1.3-.87.65-.87,1.95-1.3,1.3-.43,2.17-3.25,2.17-3.25l-1.3-2.6s1.3-.22,2.82-.43c1.52-.22,2.6-1.95,2.17-2.82-.43-.87-1.3-3.25-1.3-3.25,0,0-.43-4.12.22-4.77.65-.65,3.25-3.47,3.69-4.12.43-.65,2.17-1.95,1.52-2.82-.65-.87,1.52-2.82,1.52-2.82"/>
          <path class="cls-29" d="M909.41,3938.76c1.07,1.07,2.39,2.17,3.04,2.6.65.43-.43,1.95-1.52,1.95s-1.52-.65-2.17-1.3-1.52-1.95-2.39-2.39c-.87-.43,2.39-1.52,3.04-.87"/>
          <path class="cls-26" d="M860.83,3851.41s.44-2.41-.44-3.95c-.88-1.53,0-3.73,1.76-4.6,1.75-.88,4.6-.88,5.7-.22,1.1.66,3.51,2.41,3.51,2.41,0,0-4.17-1.75-5.05-1.97-.88-.22-2.63.22-3.29.88-.66.66-1.54,1.75-1.32,2.85.22,1.1.88,3.95.44,4.83-.44.88-1.32-.22-1.32-.22"/>
          <polygon class="cls-26" points="873.66 3846.04 872.92 3847.5 876.29 3848.96 873.66 3846.04"/>
          <path class="cls-26" d="M859.84,3864.68s.77,1.64,1.97,1.1c0,0-.22,1.1-.88,1.1l-1.21-.66-5.59,3.84s-1.21.88-1.97.11l7.68-5.48Z"/>
          <path class="cls-26" d="M955.66,3863.36s-.57,1.14-1.14,1.25c0,0,1.83,2.17,3.54,2.86s4.34.57,5.02.46c.68-.11.57-.91-.46-1.03-1.03-.11-3.43-.11-4.45-.91-1.03-.8-2.51-2.63-2.51-2.63"/>
          <path class="cls-26" d="M962.85,3865.64s-2.05,0-3.88-1.37c-.97-.73-2.05-1.71-2.05-1.71,0,0,1.14-.23,1.26-1.37,0,0,.8,1.83,2.28,2.63,1.48.8,3.65,1.6,2.4,1.83"/>
          <path class="cls-26" d="M944.51,3849.96s.22,1.31-.46,1.37c0,0,1.98.46,1.83-.61-.15-1.07-1.37-.76-1.37-.76"/>
          <path class="cls-26" d="M939.33,3849.35l3.04-2.89s.3,1.22,1.22,1.22l-4.26,1.67Z"/>
          <path class="cls-26" d="M939.64,3849.96l3.8-.91s.76,1.07.15,1.37l-3.96-.46Z"/>
          <path class="cls-26" d="M963.39,3859.1l1.07.91s4.72-4.11,5.18-4.87c.46-.76-.46-.91-1.22,0-.76.91-3.35,2.89-5.02,3.96"/>
          <path class="cls-26" d="M965.52,3860.92l.76.76s3.2-3.65,3.35-4.26c.15-.61-.61-.76-1.07,0-.46.76-3.04,3.5-3.04,3.5"/>
          <path class="cls-26" d="M851.36,3859.56l-5.99-3.65s-1.02.44,0,1.32c1.02.88,4.68,3.22,4.68,3.22l1.32-.88Z"/>
          <path class="cls-26" d="M848.73,3861.46l-3.36-2.34s-.29.58.15,1.17c.44.58,1.9,2.34,1.9,2.34l1.32-1.17Z"/>
          <polygon class="cls-26" points="841.42 3873.89 842.52 3874.11 838.64 3877.98 838.57 3876.52 841.42 3873.89"/>
          <polygon class="cls-26" points="838.57 3879.04 843.61 3874.77 844.71 3874.99 838.46 3880.58 838.57 3879.04"/>
          <polygon class="cls-26" points="846.24 3875.1 847.45 3875.42 841.75 3879.59 846.24 3875.1"/>
          <polygon class="cls-26" points="968.45 3873.63 967.42 3873.86 974.96 3880.6 974.84 3879.46 968.45 3873.63"/>
          <polygon class="cls-26" points="969.76 3873.49 971.25 3873.03 975.13 3876.12 975.13 3877.94 969.76 3873.49"/>
          <polygon class="cls-26" points="972.79 3872.38 973.47 3872.04 975.87 3873.63 975.76 3874.32 972.79 3872.38"/>
        </g>
      </g>
      
    </g>
  </g>
</svg>
